<svg id="Capa_1" xmlns="http://www.w3.org/2000/svg" viewBox="0 0 383.86 30"><defs><style>.cls-1{fill:#fff}</style></defs><path class="cls-1" d="M182.56 13.56h2.41v6.81h-2.41zM191.86 9.38h2.41v11h-2.41zM178.53 10.37l-3.14 4.07v-4.05h-2.6v9.98h2.6v-4.3l3.4 4.3h3.36l-4.34-5.26 3.95-4.74h-3.23zM185.14 11.01c0 .76-.61 1.37-1.37 1.37s-1.37-.61-1.37-1.37.61-1.37 1.37-1.37 1.37.61 1.37 1.37M190.44 13.43c-.95.02-1.62.75-1.93 1.17v-1.03h-2.41v6.81h2.41v-3.69c.17-.48.45-.91.94-1.1.92-.35 1.71.13 1.71.13v-2.28h-.73zM197.34 15.96c.19-1.22 1.32-1.13 1.32-1.13 1.15 0 1.41 1.13 1.41 1.13h-2.73zm1.31-2.7s-3.93-.24-3.83 3.83c.03 1.3.85 3.53 3.81 3.53.6 0 2.92 0 3.59-2.35h-2.32s-.37.64-1.23.65c0 0-1.42.11-1.42-1.58h5.04s.25-4.09-3.65-4.09M206.96 18.48c-.84 0-1.53-.68-1.53-1.53s.68-1.53 1.53-1.53 1.53.68 1.53 1.53-.68 1.53-1.53 1.53m-.06-5.16c-2.45 0-4.08 1.58-4.08 3.62s1.63 3.68 4.13 3.68 4.13-1.65 4.13-3.68-1.52-3.62-4.18-3.62"/><path d="M211.07 12.4h-7.33V9.69h4.89c1.35 0 2.44 1.09 2.44 2.44v.27z" fill="#f0b323"/></svg>